<svg xmlns="http://www.w3.org/2000/svg" version="1.1" xmlns:xlink="http://www.w3.org/1999/xlink" xmlns:svgjs="http://svgjs.com/svgjs" width="1600" height="900" preserveAspectRatio="none" viewBox="0 0 1600 900"><g mask="url(&quot;#SvgjsMask1124&quot;)" fill="none"><rect width="1600" height="900" x="0" y="0" fill="url(#SvgjsLinearGradient1125)"></rect><path d="M220.13421449322485 511.24332068776215L40.802126134089804 740.3275794788076 291.9886255514083 780.111612606099z" fill="rgba(28, 83, 142, 0.4)" class="triangle-float2"></path><path d="M457.72 887.7 a295.53 295.53 0 1 0 591.06 0 a295.53 295.53 0 1 0 -591.06 0z" fill="rgba(28, 83, 142, 0.4)" class="triangle-float1"></path><path d="M147.95404042852599 535.3201154738448L259.011942929807 334.9663557612561 58.65818321721831 223.90845325997515-52.399719284062684 424.2622129725638z" fill="rgba(28, 83, 142, 0.4)" class="triangle-float1"></path><path d="M852.5655948813494 392.88984243127527L1129.1830959740878 292.5077478978881 935.0440657252426 123.74526361006366z" fill="rgba(28, 83, 142, 0.4)" class="triangle-float2"></path><path d="M1082.9629348079964 488.32609895946655L1071.4949812471432 652.3254754806993 1323.228022809419 587.5277175613627z" fill="rgba(28, 83, 142, 0.4)" class="triangle-float3"></path><path d="M1078.3751571940302 89.92907038676154L948.3999174871849 229.3104505263402 1217.7565373336088 219.90431009360685z" fill="rgba(28, 83, 142, 0.4)" class="triangle-float2"></path><path d="M1250.477,256.283C1293.873,255.318,1330.025,225.449,1350.354,187.097C1369.368,151.225,1367.528,108.734,1347.365,73.495C1327.056,38.001,1291.368,13.001,1250.477,12.545C1208.828,12.081,1171.262,35.611,1149.777,71.294C1127.546,108.217,1121.994,153.862,1142.6,191.716C1164.075,231.167,1205.571,257.281,1250.477,256.283" fill="rgba(28, 83, 142, 0.4)" class="triangle-float1"></path><path d="M1119.2426741765755 40.42195864404509L1001.0425899002319-95.55168403832151 865.0689472178652 22.648400238022177 983.2690314942089 158.62204292038876z" fill="rgba(28, 83, 142, 0.4)" class="triangle-float2"></path><path d="M855.249,416.513C898.007,418.418,932.472,384.19,952.279,346.249C970.554,311.242,970.392,269.329,949.616,235.746C929.856,203.805,892.793,190.456,855.249,189.408C815.368,188.295,770.753,195.381,751.297,230.212C732.132,264.521,752.974,303.904,772.123,338.222C792.001,373.847,814.493,414.697,855.249,416.513" fill="rgba(28, 83, 142, 0.4)" class="triangle-float2"></path><path d="M135.274,693.159C175.413,692.194,212.596,674.316,234.725,640.814C259.6,603.154,273.543,555.646,252.467,515.735C230.25,473.663,182.852,452.32,135.274,452.484C87.995,452.647,42.545,475.271,19.471,516.537C-3.107,556.917,1.817,607.113,27.184,645.802C50.301,681.06,93.125,694.172,135.274,693.159" fill="rgba(28, 83, 142, 0.4)" class="triangle-float2"></path><path d="M1433.8704558097434 322.7119218116282L1437.9719506026725 557.6864011272793 1672.9464299183235 553.5849063343503 1668.8449351253944 318.61042701869917z" fill="rgba(28, 83, 142, 0.4)" class="triangle-float3"></path><path d="M852.9637179133058 82.11264382244768L797.1295434579647 276.82955027793747 991.8464499134545 332.6637247332786 1047.6806243687956 137.94681827778882z" fill="rgba(28, 83, 142, 0.4)" class="triangle-float1"></path><path d="M423.6622142951247 117.7583572409344L314.91291567179996 222.77633418962154 419.9308926204871 331.5256328129463 528.6801912438118 226.50765586425916z" fill="rgba(28, 83, 142, 0.4)" class="triangle-float1"></path><path d="M305.7829807165723 153.44422432241976L299.7398360903347 326.4972444646503 472.7928562325652 332.54038909088786 478.8360008588028 159.48736894865738z" fill="rgba(28, 83, 142, 0.4)" class="triangle-float2"></path><path d="M1325.492,419.263C1373.179,417.775,1422.379,407.454,1448.645,367.625C1477.511,323.853,1483.316,265.935,1456.2,221.058C1429.835,177.424,1376.459,162.62,1325.492,163.802C1276.876,164.93,1231.31,186.067,1204.881,226.887C1175.797,271.808,1159.837,330.411,1188.263,375.751C1215.584,419.328,1274.084,420.868,1325.492,419.263" fill="rgba(28, 83, 142, 0.4)" class="triangle-float3"></path><path d="M473.38874469065956 516.4422114585636L626.0679446490285 761.2989576876125 748.3588167851262 540.6803843203004z" fill="rgba(28, 83, 142, 0.4)" class="triangle-float1"></path><path d="M1120.1 536.42 a252.02 252.02 0 1 0 504.04 0 a252.02 252.02 0 1 0 -504.04 0z" fill="rgba(28, 83, 142, 0.4)" class="triangle-float1"></path></g><defs><mask id="SvgjsMask1124"><rect width="1600" height="900" fill="#ffffff"></rect></mask><linearGradient x1="10.94%" y1="-19.44%" x2="89.06%" y2="119.44%" gradientUnits="userSpaceOnUse" id="SvgjsLinearGradient1125"><stop stop-color="#0e2a47" offset="0"></stop><stop stop-color="rgba(0, 56, 128, 1)" offset="1"></stop></linearGradient><style>
            @keyframes float1 {
                0%{transform: translate(0, 0)}
                50%{transform: translate(-10px, 0)}
                100%{transform: translate(0, 0)}
            }

            .triangle-float1 {
                animation: float1 5s infinite;
            }

            @keyframes float2 {
                0%{transform: translate(0, 0)}
                50%{transform: translate(-5px, -5px)}
                100%{transform: translate(0, 0)}
            }

            .triangle-float2 {
                animation: float2 4s infinite;
            }

            @keyframes float3 {
                0%{transform: translate(0, 0)}
                50%{transform: translate(0, -10px)}
                100%{transform: translate(0, 0)}
            }

            .triangle-float3 {
                animation: float3 6s infinite;
            }
        </style></defs></svg>